<svg width="256" height="257" viewBox="0 0 256 257" fill="none" xmlns="http://www.w3.org/2000/svg">
<rect width="256" height="256" transform="translate(0 0.5)" fill="white"/>
<path d="M33.7578 209.653L128 232.5L68 202L33.829 207.695C32.7553 207.874 32.6999 209.397 33.7578 209.653Z" fill="#AFAFAF"/>
<path d="M202 130.5L226.51 114.977C227.854 114.126 227.123 112.043 225.541 112.219L136 122.188L202 130.5Z" fill="#EBEBEB"/>
<path d="M128 120.5L202 130.5V205.981C202 207.277 201.168 208.426 199.938 208.831L128 232.5V120.5Z" fill="#EBEBEB"/>
<path d="M128 120.5L55 130.5V206.328C55 207.624 55.832 208.774 57.063 209.178L128 232.5V120.5Z" fill="#D7D7D7"/>
<path d="M101 211.745V200.529C101 199.238 102.205 198.285 103.461 198.583L117.691 201.953C119.044 202.274 120 203.482 120 204.872V216.839C120 218.171 118.723 219.13 117.444 218.76L103.166 214.627C101.883 214.256 101 213.081 101 211.745Z" fill="#EBEBEB"/>
<path d="M105 204L116 207" stroke="#AFAFAF" stroke-linecap="round"/>
<path opacity="0.5" d="M112 78.565C112 76.5457 113.955 75.103 115.884 75.6983L141.884 83.7191C143.142 84.1071 144 85.2696 144 86.5858V105.854C144 107.743 142.276 109.161 140.422 108.798L114.422 103.693C113.015 103.417 112 102.184 112 100.75V78.565Z" fill="#99BEEB"/>
<path opacity="0.5" d="M120 75.6339C120 73.5944 121.991 72.1494 123.93 72.7817L149.93 81.2609C151.165 81.6635 152 82.8146 152 84.113V104.813C152 106.715 150.253 108.137 148.39 107.751L122.39 102.355C120.998 102.066 120 100.84 120 99.4176V75.6339Z" fill="#99BEEB"/>
<path d="M128 72.7035C128 70.6441 130.028 69.197 131.975 69.8665L157.975 78.804C159.187 79.2204 160 80.3601 160 81.641V103.773C160 105.688 158.23 107.113 156.359 106.704L130.359 101.016C128.982 100.715 128 99.4951 128 98.0853V72.7035Z" fill="#99BEEB"/>
<path d="M55 130.5L128 120.5L104.679 89.2501C103.671 87.8997 101.926 87.3256 100.313 87.8144L28.1896 109.675C26.5498 110.172 26.2534 112.366 27.7027 113.28L55 130.5Z" fill="#C3C3C3"/>
<path d="M154.041 160.881L200.078 159.075C201.152 159.033 202 158.151 202 157.077V140.5L128 120.5L149.497 158.354C150.42 159.979 152.173 160.954 154.041 160.881Z" fill="#AFAFAF"/>
<path d="M160.358 153.961L128 120.5L202 130.5L227.703 151.491C229.154 152.675 228.325 155.026 226.452 155.04L163.987 155.485C162.62 155.494 161.308 154.944 160.358 153.961Z" fill="#D7D7D7"/>
<path d="M85 126.372L94 125.172V168.629C94 169.428 93.1089 169.904 92.4444 169.46L89.9379 167.785C89.6638 167.602 89.317 167.566 89.0109 167.688L86.3714 168.744C85.7145 169.007 85 168.523 85 167.816V126.372Z" fill="#AFAFAF"/>
<path d="M116 213L105 210" stroke="#AFAFAF" stroke-linecap="round"/>
<path d="M83.8843 55.37C83.9871 55.1137 84.2783 54.9894 84.5345 55.0922C84.7908 55.1951 84.9152 55.4862 84.8123 55.7425L83.8843 55.37ZM93.9312 73.0336L94.0807 72.5564L93.9312 73.0336ZM113.924 57.8767L114.422 57.8358L113.924 57.8767ZM120.796 56.9261L120.428 56.5885L120.796 56.9261ZM124.967 44.1165C125.162 43.9212 125.479 43.9212 125.674 44.1165L128.856 47.2984C129.051 47.4937 129.051 47.8103 128.856 48.0055C128.661 48.2008 128.344 48.2008 128.149 48.0055L125.321 45.1771L122.492 48.0055C122.297 48.2008 121.98 48.2008 121.785 48.0055C121.59 47.8103 121.59 47.4937 121.785 47.2984L124.967 44.1165ZM84.5256 56.7095C84.4682 56.9796 84.2026 57.152 83.9325 57.0946C83.6624 57.0372 83.49 56.7716 83.5475 56.5015L84.5256 56.7095ZM83.3253 58.7906C83.3255 58.5145 83.5494 58.2907 83.8255 58.2908C84.1017 58.2909 84.3255 58.5149 84.3253 58.791L83.3253 58.7906ZM84.4888 60.9066C84.53 61.1796 84.342 61.4344 84.069 61.4755C83.7959 61.5167 83.5412 61.3288 83.5 61.0557L84.4888 60.9066ZM83.9886 63.2666C83.9111 63.0015 84.0632 62.7239 84.3282 62.6464C84.5933 62.5689 84.8709 62.7209 84.9484 62.986L83.9886 63.2666ZM85.6816 64.9857C85.794 65.2379 85.6806 65.5335 85.4284 65.6459C85.1761 65.7583 84.8805 65.6449 84.7681 65.3927L85.6816 64.9857ZM85.8344 67.394C85.6874 67.1602 85.7577 66.8516 85.9915 66.7046C86.2253 66.5576 86.5339 66.6279 86.6809 66.8617L85.8344 67.394ZM87.9412 68.5664C88.1219 68.7751 88.0992 69.0909 87.8904 69.2716C87.6817 69.4524 87.3659 69.4297 87.1851 69.2209L87.9412 68.5664ZM88.8068 70.8172C88.595 70.64 88.567 70.3246 88.7443 70.1129C88.9215 69.9011 89.2368 69.8731 89.4486 70.0504L88.8068 70.8172ZM91.1753 71.271C91.413 71.4116 91.4917 71.7183 91.3511 71.9559C91.2105 72.1936 90.9039 72.2723 90.6662 72.1317L91.1753 71.271ZM92.709 73.1311C92.4523 73.0293 92.3267 72.7387 92.4284 72.482C92.5302 72.2253 92.8208 72.0997 93.0775 72.2014L92.709 73.1311ZM95.0796 72.8402C95.3472 72.9084 95.5089 73.1806 95.4407 73.4482C95.3725 73.7158 95.1003 73.8774 94.8328 73.8092L95.0796 72.8402ZM96.9792 74.2263C96.7055 74.1898 96.5131 73.9384 96.5496 73.6647C96.586 73.3909 96.8374 73.1986 97.1112 73.235L96.9792 74.2263ZM99.1685 73.3772C99.4446 73.3782 99.6676 73.6029 99.6666 73.879C99.6656 74.1552 99.4409 74.3782 99.1647 74.3771L99.1685 73.3772ZM101.356 74.235C101.082 74.2721 100.83 74.0803 100.793 73.8067C100.756 73.533 100.948 73.2812 101.221 73.2441L101.356 74.235ZM103.233 72.822C103.498 72.7457 103.775 72.899 103.851 73.1644C103.928 73.4298 103.774 73.7068 103.509 73.7831L103.233 72.822ZM105.573 73.0202C105.322 73.1349 105.025 73.0243 104.911 72.7731C104.796 72.5219 104.907 72.2253 105.158 72.1105L105.573 73.0202ZM106.955 71.1219C107.187 70.9713 107.497 71.0368 107.647 71.2682C107.798 71.4996 107.732 71.8094 107.501 71.96L106.955 71.1219ZM109.252 70.6274C109.045 70.8102 108.729 70.7907 108.546 70.5838C108.363 70.3769 108.383 70.0609 108.59 69.8781L109.252 70.6274ZM110.027 68.4098C110.205 68.1991 110.521 68.1731 110.732 68.3516C110.942 68.5301 110.968 68.8456 110.79 69.0563L110.027 68.4098ZM112.088 67.2831C111.941 67.5168 111.632 67.5872 111.399 67.4403C111.165 67.2933 111.094 66.9847 111.241 66.7509L112.088 67.2831ZM112.211 64.9371C112.323 64.685 112.619 64.572 112.871 64.6847C113.123 64.7974 113.236 65.0932 113.124 65.3453L112.211 64.9371ZM113.877 63.281C113.801 63.5465 113.524 63.6999 113.259 63.6238C112.993 63.5476 112.84 63.2707 112.916 63.0053L113.877 63.281ZM113.34 60.9945C113.378 60.7209 113.63 60.5296 113.904 60.5672C114.177 60.6048 114.369 60.857 114.331 61.1306L113.34 60.9945ZM114.472 58.9358C114.475 59.2119 114.253 59.4377 113.976 59.4401C113.7 59.4424 113.475 59.2205 113.472 58.9444L114.472 58.9358ZM113.319 56.9939C113.277 56.7209 113.465 56.4661 113.738 56.4249C114.011 56.3837 114.266 56.5717 114.307 56.8447L113.319 56.9939ZM113.867 54.8963C113.948 55.1604 113.8 55.4399 113.536 55.5207C113.271 55.6014 112.992 55.4528 112.911 55.1887L113.867 54.8963ZM112.235 53.4772C112.112 53.2296 112.214 52.9297 112.462 52.8075C112.709 52.6852 113.009 52.7868 113.131 53.0344L112.235 53.4772ZM112.088 51.3171C112.252 51.5393 112.205 51.8524 111.983 52.0163C111.76 52.1803 111.447 52.1332 111.283 51.911L112.088 51.3171ZM110.065 50.5535C109.861 50.3673 109.846 50.051 110.032 49.8471C110.219 49.6432 110.535 49.6288 110.739 49.815L110.065 50.5535ZM109.1 48.614C109.34 48.7513 109.423 49.0568 109.286 49.2964C109.148 49.536 108.843 49.619 108.603 49.4818L109.1 48.614ZM106.951 48.7936C106.684 48.7226 106.525 48.4487 106.596 48.1819C106.667 47.915 106.941 47.7563 107.208 47.8273L106.951 48.7936ZM105.142 47.612C105.417 47.5943 105.655 47.8033 105.673 48.0789C105.69 48.3545 105.481 48.5922 105.206 48.6099L105.142 47.612ZM103.549 49.0464C103.301 49.1695 103.001 49.0689 102.878 48.8217C102.755 48.5745 102.856 48.2743 103.103 48.1512L103.549 49.0464ZM101.446 49.463C101.624 49.2518 101.939 49.2249 102.151 49.4028C102.362 49.5808 102.389 49.8962 102.211 50.1074L101.446 49.463ZM101.309 51.6773C101.214 51.9365 100.926 52.0694 100.667 51.9742C100.408 51.879 100.275 51.5917 100.37 51.3325L101.309 51.6773ZM100.004 53.5255C99.9978 53.2494 100.216 53.0203 100.492 53.0138C100.768 53.0073 100.998 53.2258 101.004 53.5019L100.004 53.5255ZM101.38 55.3327C101.479 55.5902 101.351 55.8798 101.094 55.9794C100.836 56.079 100.547 55.951 100.447 55.6935L101.38 55.3327ZM101.515 57.5947C101.349 57.3739 101.394 57.0605 101.615 56.8947C101.835 56.7289 102.149 56.7736 102.315 56.9944L101.515 57.5947ZM103.645 58.4014C103.855 58.5809 103.88 58.8965 103.7 59.1064C103.521 59.3163 103.205 59.341 102.995 59.1615L103.645 58.4014ZM104.75 60.3919C104.51 60.2548 104.427 59.9494 104.564 59.7096C104.701 59.4699 105.006 59.3867 105.246 59.5238L104.75 60.3919ZM107.027 60.3455C107.287 60.4393 107.422 60.7259 107.328 60.9856C107.234 61.2453 106.947 61.3798 106.688 61.286L107.027 60.3455ZM108.746 61.8392C108.475 61.7901 108.294 61.5301 108.343 61.2583C108.392 60.9866 108.652 60.8061 108.924 60.8551L108.746 61.8392ZM110.88 61.0408C111.156 61.0437 111.377 61.2698 111.374 61.546C111.371 61.8221 111.145 62.0436 110.869 62.0407L110.88 61.0408ZM112.996 61.8824C112.724 61.9262 112.467 61.7406 112.423 61.4679C112.38 61.1953 112.565 60.9388 112.838 60.895L112.996 61.8824ZM114.744 60.422C115.006 60.3333 115.29 60.4735 115.378 60.7351C115.467 60.9966 115.327 61.2804 115.065 61.3691L114.744 60.422ZM117.018 60.5253C116.774 60.6546 116.472 60.5617 116.342 60.3177C116.213 60.0737 116.306 59.7711 116.55 59.6418L117.018 60.5253ZM118.218 58.5893C118.44 58.4253 118.753 58.4725 118.917 58.6946C119.081 58.9168 119.034 59.2299 118.812 59.3938L118.218 58.5893ZM120.426 58.0242C120.227 58.2162 119.911 58.211 119.719 58.0125C119.527 57.814 119.532 57.4975 119.731 57.3055L120.426 58.0242ZM121.147 55.7539C121.321 55.5393 121.636 55.5063 121.851 55.6801C122.065 55.8539 122.098 56.1688 121.924 56.3833L121.147 55.7539ZM123.268 54.4801C123.125 54.716 122.817 54.7909 122.581 54.6474C122.345 54.5038 122.271 54.1962 122.414 53.9603L123.268 54.4801ZM123.418 52.012C123.527 51.7582 123.821 51.6405 124.074 51.7492C124.328 51.8579 124.446 52.1518 124.337 52.4057L123.418 52.012ZM125.104 50.2043C125.031 50.4706 124.756 50.6272 124.49 50.5541C124.224 50.481 124.067 50.2059 124.14 49.9396L125.104 50.2043ZM124.59 47.783C124.63 47.5098 124.884 47.321 125.157 47.3613C125.431 47.4016 125.619 47.6557 125.579 47.9289L124.59 47.783ZM125.796 45.6249C125.783 45.9008 125.55 46.1145 125.274 46.1024C124.998 46.0902 124.784 45.8567 124.797 45.5808L125.796 45.6249ZM84.8123 55.7425C84.6994 56.0238 84.6025 56.3478 84.5256 56.7095L83.5475 56.5015C83.6344 56.0928 83.7467 55.7127 83.8843 55.37L84.8123 55.7425ZM84.3253 58.791C84.3251 59.4561 84.3774 60.168 84.4888 60.9066L83.5 61.0557C83.3814 60.2696 83.3251 59.5077 83.3253 58.7906L84.3253 58.791ZM84.9484 62.986C85.1432 63.6523 85.3863 64.3232 85.6816 64.9857L84.7681 65.3927C84.4539 64.6876 84.1955 63.9743 83.9886 63.2666L84.9484 62.986ZM86.6809 66.8617C87.052 67.4518 87.4711 68.0234 87.9412 68.5664L87.1851 69.2209C86.6803 68.6377 86.2312 68.0249 85.8344 67.394L86.6809 66.8617ZM89.4486 70.0504C89.9768 70.4924 90.5515 70.902 91.1753 71.271L90.6662 72.1317C89.9947 71.7346 89.3758 71.2934 88.8068 70.8172L89.4486 70.0504ZM93.0775 72.2014C93.4011 72.3297 93.7354 72.4483 94.0807 72.5564L93.7818 73.5107C93.4132 73.3953 93.0557 73.2685 92.709 73.1311L93.0775 72.2014ZM94.0807 72.5564C94.4164 72.6616 94.7495 72.7561 95.0796 72.8402L94.8328 73.8092C94.4849 73.7206 94.1345 73.6212 93.7818 73.5107L94.0807 72.5564ZM97.1112 73.235C97.8128 73.3284 98.4991 73.3747 99.1685 73.3772L99.1647 74.3771C98.4518 74.3745 97.7227 74.3253 96.9792 74.2263L97.1112 73.235ZM101.221 73.2441C101.914 73.1502 102.585 73.0081 103.233 72.822L103.509 73.7831C102.815 73.9826 102.096 74.1347 101.356 74.235L101.221 73.2441ZM105.158 72.1105C105.786 71.8235 106.386 71.4923 106.955 71.1219L107.501 71.96C106.891 72.3571 106.247 72.7123 105.573 73.0202L105.158 72.1105ZM108.59 69.8781C109.105 69.4228 109.585 68.9317 110.027 68.4098L110.79 69.0563C110.317 69.6144 109.803 70.1399 109.252 70.6274L108.59 69.8781ZM111.241 66.7509C111.606 66.17 111.931 65.5636 112.211 64.9371L113.124 65.3453C112.824 66.0146 112.478 66.6624 112.088 67.2831L111.241 66.7509ZM112.916 63.0053C113.104 62.3477 113.247 61.6757 113.34 60.9945L114.331 61.1306C114.231 61.8595 114.079 62.5782 113.877 63.281L112.916 63.0053ZM113.472 58.9444C113.469 58.6029 113.454 58.2604 113.426 57.9176L114.422 57.8358C114.453 58.2031 114.469 58.57 114.472 58.9358L113.472 58.9444ZM113.426 57.9176C113.4 57.6024 113.364 57.2944 113.319 56.9939L114.307 56.8447C114.356 57.1678 114.395 57.4982 114.422 57.8358L113.426 57.9176ZM112.911 55.1887C112.725 54.5785 112.497 54.0075 112.235 53.4772L113.131 53.0344C113.417 53.6137 113.665 54.235 113.867 54.8963L112.911 55.1887ZM111.283 51.911C110.908 51.402 110.497 50.9488 110.065 50.5535L110.739 49.815C111.221 50.2549 111.674 50.7566 112.088 51.3171L111.283 51.911ZM108.603 49.4818C108.06 49.1704 107.503 48.9405 106.951 48.7936L107.208 47.8273C107.849 47.9977 108.486 48.2621 109.1 48.614L108.603 49.4818ZM105.206 48.6099C104.618 48.6478 104.058 48.7926 103.549 49.0464L103.103 48.1512C103.74 47.8342 104.43 47.6578 105.142 47.612L105.206 48.6099ZM102.211 50.1074C102.031 50.3212 101.863 50.56 101.71 50.8248L100.844 50.3248C101.025 50.0108 101.227 49.7235 101.446 49.463L102.211 50.1074ZM101.71 50.8248C101.546 51.1078 101.413 51.3925 101.309 51.6773L100.37 51.3325C100.495 50.9925 100.653 50.656 100.844 50.3248L101.71 50.8248ZM101.004 53.5019C101.019 54.1182 101.148 54.733 101.38 55.3327L100.447 55.6935C100.177 54.9953 100.022 54.2666 100.004 53.5255L101.004 53.5019ZM102.315 56.9944C102.689 57.4933 103.136 57.9663 103.645 58.4014L102.995 59.1615C102.435 58.6821 101.936 58.1561 101.515 57.5947L102.315 56.9944ZM105.246 59.5238C105.802 59.8418 106.399 60.1186 107.027 60.3455L106.688 61.286C106.006 61.0396 105.356 60.7387 104.75 60.3919L105.246 59.5238ZM108.924 60.8551C109.559 60.9698 110.213 61.0339 110.88 61.0408L110.869 62.0407C110.145 62.0332 109.435 61.9636 108.746 61.8392L108.924 60.8551ZM112.838 60.895C113.47 60.7936 114.108 60.6377 114.744 60.422L115.065 61.3691C114.375 61.603 113.683 61.7722 112.996 61.8824L112.838 60.895ZM116.55 59.6418C117.111 59.3442 117.669 58.9947 118.218 58.5893L118.812 59.3938C118.223 59.8283 117.624 60.2042 117.018 60.5253L116.55 59.6418ZM119.731 57.3055C119.965 57.0784 120.198 56.8395 120.428 56.5885L121.165 57.2638C120.922 57.5295 120.675 57.7828 120.426 58.0242L119.731 57.3055ZM120.428 56.5885C120.677 56.3159 120.917 56.0379 121.147 55.7539L121.924 56.3833C121.681 56.6836 121.428 56.9769 121.165 57.2638L120.428 56.5885ZM122.414 53.9603C122.79 53.3422 123.126 52.6945 123.418 52.012L124.337 52.4057C124.026 53.1324 123.669 53.8223 123.268 54.4801L122.414 53.9603ZM124.14 49.9396C124.328 49.2557 124.478 48.5382 124.59 47.783L125.579 47.9289C125.462 48.7225 125.303 49.4798 125.104 50.2043L124.14 49.9396ZM124.797 45.5808C124.812 45.2186 124.821 44.8484 124.821 44.47L125.821 44.47C125.821 44.8627 125.812 45.2475 125.796 45.6249L124.797 45.5808Z" fill="#D7D7D7"/>
</svg>
