<svg width="51" height="40" viewBox="0 0 51 40" fill="none" xmlns="http://www.w3.org/2000/svg">
<g clip-path="url(#clip0_2833_15486)">
<path d="M50.849 17.655C54.7485 -22.9763 -17.119 16.8734 23.7556 34.333C37.4334 40.1767 48.4303 34.9606 50.849 17.655Z" fill="#883DF2"/>
<path d="M17.2084 39.827C25.602 41.1386 33.9881 35.0732 33.6373 19.6579C32.5295 -29.1207 -29.0649 32.6042 17.2084 39.827Z" fill="#0078C8"/>
<path d="M27.119 2.38232C12.8209 8.4665 1.34761 24.7611 23.755 34.3327C25.4536 35.058 27.1116 35.6142 28.7143 35.9975C31.8051 32.7168 33.8065 27.3541 33.633 19.6578C33.4114 9.95842 30.797 4.64087 27.119 2.38232Z" fill="#051E64"/>
<path d="M25.0036 12.1644C27.9098 12.1644 29.1542 12.5853 29.1542 15.5428C29.1542 18.5004 27.9098 18.9213 25.0036 18.9213C24.4756 18.9213 24.0066 18.9062 23.5856 18.8686C23.3715 18.8499 23.209 18.6657 23.209 18.4478V17.512C23.209 17.403 23.2533 17.3128 23.3345 17.2414C23.4158 17.1738 23.5118 17.1475 23.6189 17.1663C23.9918 17.2339 24.4571 17.2339 25.0073 17.2339C26.6063 17.2339 27.4999 17.2339 27.4999 15.5428C27.4999 13.8517 26.6801 13.8593 25.0221 13.8593C24.7045 13.8593 24.5051 13.8517 24.0694 13.9043C23.8441 13.9307 23.641 13.7165 23.641 13.4835V12.6379C23.641 12.4049 23.8331 12.2621 24.0546 12.217C24.3353 12.1606 24.6898 12.1606 25.011 12.1606" fill="white"/>
<path fill-rule="evenodd" clip-rule="evenodd" d="M19.8855 29.0642C19.3353 29.0642 18.8442 29.0491 18.4085 29.004C18.1684 28.9777 17.9875 28.7748 17.9875 28.5305V27.7827C17.9875 27.4858 18.1832 27.2866 18.5303 27.3129C18.9033 27.3392 19.3501 27.3731 19.8819 27.3731H20.5539C21.9424 27.3731 23.0243 27.4971 23.0465 25.7383C23.0465 24.8552 23.0465 23.9758 23.0465 23.0927C23.028 21.458 22.1972 21.458 20.5576 21.458C18.9181 21.458 18.065 21.458 18.065 23.1491C18.065 24.8402 18.955 24.8402 20.5576 24.8402C21.0894 24.8402 21.5399 24.8402 21.9092 24.7801C22.1972 24.7312 22.452 24.9529 22.452 25.2498V25.9976C22.452 26.2419 22.271 26.4486 22.031 26.4711C21.5953 26.5162 21.1041 26.5313 20.5539 26.5313C17.6478 26.5313 16.4033 26.1104 16.4033 23.1528C16.4033 20.1953 17.6478 19.7744 20.5539 19.7744C23.4601 19.7744 24.7045 20.1953 24.7045 23.1528V25.6895C24.7045 28.647 23.4601 29.0679 20.5539 29.0679H19.8819L19.8855 29.0642Z" fill="white"/>
<path fill-rule="evenodd" clip-rule="evenodd" d="M25.5281 27.3807C26.7134 27.377 27.4963 27.1928 27.4963 25.4078C27.4963 22.4052 27.4556 20.9658 27.415 20.2218C27.4076 20.1015 27.4483 19.9963 27.5295 19.9098C27.6107 19.8234 27.7141 19.7783 27.8323 19.7783H28.6669C28.8847 19.7783 29.0657 19.9512 29.0804 20.1729C29.1211 20.793 29.158 22.2323 29.158 25.1297C29.158 28.0271 28.1462 28.9666 25.5465 29.0643C25.4284 29.0681 25.3286 29.0305 25.2437 28.9478C25.1588 28.8651 25.1182 28.7637 25.1182 28.6434V27.8054C25.1182 27.5724 25.3028 27.3845 25.5317 27.3845" fill="white"/>
<path fill-rule="evenodd" clip-rule="evenodd" d="M29.9668 15.543V10.0488C29.9668 9.81583 30.1514 9.62793 30.3804 9.62793H31.2112C31.4402 9.62793 31.6248 9.81959 31.6248 10.0488V15.543C31.6248 17.2341 32.5148 17.2341 34.1174 17.2341C35.72 17.2341 36.61 17.2341 36.61 15.543V14.3141C36.61 14.0811 36.7983 13.8932 37.0236 13.8932H37.8544C38.0834 13.8932 38.268 14.0849 38.268 14.3141V15.543C38.268 18.5005 37.0236 18.9214 34.1174 18.9214C31.2112 18.9214 29.9668 18.5005 29.9668 15.543Z" fill="white"/>
<path fill-rule="evenodd" clip-rule="evenodd" d="M32.0415 19.7671H35.9152C36.2955 19.7671 36.6057 20.0828 36.6057 20.4698V22.4428C36.6057 22.6758 36.4174 22.8637 36.1921 22.8637H35.3613C35.1323 22.8637 34.9477 22.6758 34.9477 22.4428V21.5972C34.9477 21.5183 34.8849 21.4582 34.811 21.4582H32.0415C31.8126 21.4582 31.6279 21.2665 31.6279 21.0373V20.1917C31.6279 19.9587 31.8163 19.7708 32.0415 19.7708" fill="white"/>
</g>
<defs>
<clipPath id="clip0_2833_15486">
<rect width="51" height="40" fill="white"/>
</clipPath>
</defs>
</svg>
